<?xml version="1.0" encoding="utf-8"?>
<!-- Generator: Adobe Illustrator 24.1.0, SVG Export Plug-In . SVG Version: 6.00 Build 0)  -->
<svg version="1.1"
	 id="Layer_1" xmlns:cc="http://creativecommons.org/ns#" xmlns:dc="http://purl.org/dc/elements/1.1/" xmlns:inkscape="http://www.inkscape.org/namespaces/inkscape" xmlns:rdf="http://www.w3.org/1999/02/22-rdf-syntax-ns#" xmlns:sodipodi="http://sodipodi.sourceforge.net/DTD/sodipodi-0.dtd" xmlns:svg="http://www.w3.org/2000/svg"
	 xmlns="http://www.w3.org/2000/svg" xmlns:xlink="http://www.w3.org/1999/xlink" x="0px" y="0px" viewBox="0 0 40.1 82.2"
	 style="enable-background:new 0 0 40.1 82.2;" xml:space="preserve">
<g transform="translate(0,-952.36218)">
	<path d="M40.1,993.1c-0.1-0.8-0.4-1.6-1-2.3l-32-37c-1.4-1.7-3.9-2-5.6-0.6c-1.7,1.4-2,3.9-0.6,5.6C1,959,1,959,1.1,959.1
		l29.7,34.4l-29.7,34.4c-1.5,1.6-1.4,4.1,0.2,5.7c1.6,1.5,4.1,1.4,5.7-0.2c0.1-0.1,0.1-0.1,0.2-0.2l32-37
		C39.8,995.3,40.2,994.2,40.1,993.1L40.1,993.1z"/>
</g>
</svg>
